<svg xmlns="http://www.w3.org/2000/svg"  viewBox="0 0 100 100" width="200px" height="200px"><circle cx="13" cy="29" r="2" fill="#ee3e54"/><circle cx="77" cy="13" r="1" fill="#f1bc19"/><circle cx="50" cy="50" r="37" fill="#fce0a2"/><circle cx="83" cy="15" r="4" fill="#f1bc19"/><circle cx="87" cy="24" r="2" fill="#ee3e54"/><circle cx="81" cy="76" r="2" fill="#fbcd59"/><circle cx="15" cy="63" r="4" fill="#fbcd59"/><circle cx="25" cy="87" r="2" fill="#ee3e54"/><circle cx="19.5" cy="54.5" r="2.5" fill="#fff"/><circle cx="21" cy="67" r="1" fill="#f1bc19"/><circle cx="80" cy="34" r="1" fill="#fff"/><g><path fill="#ee3e54" d="M30.122,70.3c-0.375,0-0.72-0.154-0.97-0.434s-0.364-0.639-0.322-1.011l2.701-24 c0.074-0.658,0.629-1.154,1.292-1.154h36.089c0.374,0,0.717,0.153,0.967,0.431c0.25,0.278,0.365,0.636,0.325,1.007l-0.859,8 c-0.071,0.662-0.627,1.161-1.292,1.161H44.785c-0.355,0-0.655,0.267-0.695,0.621l-0.573,5c-0.022,0.198,0.04,0.396,0.173,0.545 s0.323,0.234,0.522,0.234h22.816c0.376,0,0.722,0.155,0.972,0.436s0.363,0.641,0.319,1.015l-0.82,7 c-0.077,0.655-0.632,1.149-1.291,1.149H30.122z"/><path fill="#472b29" d="M68.912,44.4c0.233,0,0.38,0.125,0.446,0.199c0.067,0.074,0.175,0.234,0.15,0.465l-0.859,8 C68.616,53.37,68.36,53.6,68.052,53.6H44.785c-0.712,0-1.31,0.534-1.391,1.241l-0.573,5c-0.045,0.396,0.08,0.793,0.346,1.091 s0.646,0.468,1.045,0.468h22.816c0.234,0,0.381,0.126,0.448,0.201c0.067,0.075,0.175,0.236,0.148,0.469l-0.82,7 c-0.035,0.302-0.292,0.53-0.596,0.53H30.122c-0.234,0-0.381-0.125-0.447-0.2c-0.067-0.075-0.175-0.235-0.149-0.467l2.701-24 c0.034-0.304,0.291-0.533,0.596-0.533H68.912 M68.912,43H32.823c-1.018,0-1.874,0.765-1.987,1.776l-2.701,24 C28.001,69.962,28.929,71,30.122,71h36.086c1.015,0,1.868-0.76,1.986-1.767l0.82-7C69.154,61.044,68.225,60,67.028,60H44.212 l0.573-5h23.267c1.022,0,1.879-0.77,1.989-1.786l0.859-8C71.027,44.031,70.101,43,68.912,43L68.912,43z"/></g><g><path fill="#ee3e54" d="M33.856,37.3c-0.376,0-0.722-0.155-0.972-0.436c-0.25-0.281-0.363-0.642-0.319-1.015l0.82-7 c0.077-0.655,0.632-1.148,1.291-1.148h36.075c0.377,0,0.722,0.155,0.972,0.436c0.25,0.281,0.363,0.641,0.319,1.015l-0.82,7 c-0.077,0.655-0.632,1.149-1.291,1.149H33.856z"/><path fill="#472b29" d="M70.752,28.4c0.234,0,0.381,0.126,0.448,0.201c0.067,0.075,0.175,0.236,0.148,0.469l-0.82,7 c-0.035,0.302-0.292,0.53-0.596,0.53H33.856c-0.234,0-0.381-0.126-0.448-0.201c-0.067-0.075-0.175-0.236-0.148-0.469l0.82-7 c0.035-0.302,0.292-0.53,0.596-0.53H70.752 M70.752,27H34.677c-1.015,0-1.868,0.76-1.986,1.767l-0.82,7 C31.731,36.956,32.66,38,33.856,38h36.075c1.015,0,1.868-0.76,1.986-1.767l0.82-7C72.878,28.044,71.949,27,70.752,27L70.752,27z"/></g><g><path fill="#472b29" d="M64.894,67.75H51.872c-0.138,0-0.25-0.112-0.25-0.25s0.112-0.25,0.25-0.25h13.021 c0.138,0,0.25,0.112,0.25,0.25S65.031,67.75,64.894,67.75z"/></g><g><path fill="#472b29" d="M55,51.75H43.872c-0.138,0-0.25-0.112-0.25-0.25s0.112-0.25,0.25-0.25H55 c0.138,0,0.25,0.112,0.25,0.25S55.138,51.75,55,51.75z"/></g><g><path fill="#472b29" d="M67,51.75h-9.128c-0.138,0-0.25-0.112-0.25-0.25s0.112-0.25,0.25-0.25H67 c0.138,0,0.25,0.112,0.25,0.25S67.138,51.75,67,51.75z"/></g><g><path fill="#472b29" d="M47.468,67.75H32.149c-0.071,0-0.14-0.031-0.187-0.084c-0.048-0.053-0.07-0.125-0.062-0.195 l1.914-16.27c0.016-0.137,0.14-0.237,0.277-0.219c0.137,0.016,0.235,0.14,0.219,0.277L32.431,67.25h15.037 c0.138,0,0.25,0.112,0.25,0.25S47.605,67.75,47.468,67.75z"/></g><g><path fill="#472b29" d="M69.129,34.132c-0.009,0-0.018,0-0.027-0.001c-0.137-0.015-0.236-0.139-0.221-0.276l0.34-3.105 H55.894c-0.138,0-0.25-0.112-0.25-0.25s0.112-0.25,0.25-0.25H69.5c0.071,0,0.139,0.03,0.187,0.083 c0.047,0.053,0.069,0.124,0.062,0.194l-0.371,3.382C69.363,34.038,69.255,34.132,69.129,34.132z"/></g><g><path fill="#472b29" d="M52.574,30.75h-7.106c-0.138,0-0.25-0.112-0.25-0.25s0.112-0.25,0.25-0.25h7.106 c0.138,0,0.25,0.112,0.25,0.25S52.712,30.75,52.574,30.75z"/></g><g><path fill="#472b29" d="M42.468,30.75H36.5c-0.138,0-0.25-0.112-0.25-0.25s0.112-0.25,0.25-0.25h5.968 c0.138,0,0.25,0.112,0.25,0.25S42.605,30.75,42.468,30.75z"/></g></svg>